<svg viewBox="0 0 32 31" fill="none" xmlns="http://www.w3.org/2000/svg">
<path d="M16 5.24139V27.7414M9.625 9.74139H6.25M10.75 14.2414H6.25M31 22.1164V4.01139C31 2.21139 29.53 0.876387 27.745 1.02639H27.655C24.505 1.29639 19.72 2.90139 17.05 4.58139L16.795 4.74639C16.36 5.01639 15.64 5.01639 15.205 4.74639L14.83 4.52139C12.16 2.85639 7.39 1.26639 4.24 1.01139C2.455 0.861387 1 2.21139 1 3.99639V22.1164C1 23.5564 2.17 24.9064 3.61 25.0864L4.045 25.1464C7.3 25.5814 12.325 27.2314 15.205 28.8064L15.265 28.8364C15.67 29.0614 16.315 29.0614 16.705 28.8364C19.585 27.2464 24.625 25.5814 27.895 25.1464L28.39 25.0864C29.83 24.9064 31 23.5564 31 22.1164V22.1164Z" stroke="#772CE8" stroke-width="2" stroke-linecap="round" stroke-linejoin="round"/>
</svg>
