<svg viewBox="0 0 39 40" fill="none" xmlns="http://www.w3.org/2000/svg">
<path d="M19.299 35C19.0915 35.0013 18.8858 34.9592 18.6937 34.8763C18.5016 34.7933 18.3269 34.6711 18.1796 34.5167L5.92917 21.55C4.39252 19.9086 3.53058 17.6926 3.53058 15.3833C3.53058 13.074 4.39252 10.858 5.92917 9.21666C7.47783 7.58418 9.57565 6.66745 11.7627 6.66745C13.9498 6.66745 16.0476 7.58418 17.5963 9.21666L19.299 11.0167L21.0018 9.21666C22.5504 7.58418 24.6483 6.66745 26.8353 6.66745C29.0224 6.66745 31.1202 7.58418 32.6689 9.21666C34.2055 10.858 35.0675 13.074 35.0675 15.3833C35.0675 17.6926 34.2055 19.9086 32.6689 21.55L20.4184 34.5167C20.2711 34.6711 20.0964 34.7933 19.9043 34.8763C19.7122 34.9592 19.5065 35.0013 19.299 35Z" fill="#772CE8"/>
</svg>
